# xmcd
#
# Track frame offsets:
#	150
#	15591
#	25116
#	41761
#	57935
#	67148
#	89166
#	99952
#	111099
#	130617
#	143947
#	157908
#	182520
#
# Disc length: 2871 seconds
#
# Revision: 1
# Processed by: cddbd v1.5.2PL0 Copyright (c) Steve Scherf et al.
# Submitted via: audiograbber 1.83.01
#
DISCID=a90b350d
DTITLE=Toni Price - Cherry Sunday Orchestra
DYEAR=2010
DGENRE=Blues
TTITLE0=Moonlight Saving Time
TTITLE1=Let's Go Dancin'
TTITLE2=Bird in the Hand
TTITLE3=Blues for Rampart
TTITLE4=Jack I'm Mellow
TTITLE5=I Surrender Dear
TTITLE6=When You Are Near
TTITLE7=Gotta Have a Little Lovin'
TTITLE8=Going to New Orleans
TTITLE9=A Kiss To Build A Dream On
TTITLE10=Do You Take Me For A Fool
TTITLE11=Star Baby
TTITLE12=Data Track
EXTD=
EXTT0=
EXTT1=
EXTT2=
EXTT3=
EXTT4=
EXTT5=
EXTT6=
EXTT7=
EXTT8=
EXTT9=
EXTT10=
EXTT11=
EXTT12=
PLAYORDER=
